<?xml version="1.0" standalone="no"?>
<!DOCTYPE svg PUBLIC "-//W3C//DTD SVG 20010904//EN"
 "http://www.w3.org/TR/2001/REC-SVG-20010904/DTD/svg10.dtd">
<svg version="1.0" xmlns="http://www.w3.org/2000/svg"
 width="300.000000pt" height="300.000000pt" viewBox="0 0 300.000000 300.000000"
 preserveAspectRatio="xMidYMid meet">
<metadata>
Created by potrace 1.11, written by Peter Selinger 2001-2013
</metadata>
<g transform="translate(0.000000,300.000000) scale(0.100000,-0.100000)"
fill="#000000" stroke="none">
<path d="M475 2943 c-79 -17 -125 -37 -125 -54 0 -10 -9 -36 -21 -58 -15 -29
-19 -50 -14 -73 l6 -33 -21 24 c-12 14 -24 37 -27 52 -3 15 -12 30 -20 33 -21
8 -102 -79 -140 -150 -65 -122 -62 -77 -63 -1183 0 -1107 -2 -1062 63 -1185
40 -75 128 -163 203 -203 123 -65 80 -63 1176 -63 674 0 1013 4 1053 11 173
32 319 162 381 339 l23 65 0 1030 c1 1120 3 1065 -55 1183 -57 114 -179 215
-304 252 -65 19 -96 20 -1081 19 -558 -1 -1023 -3 -1034 -6z m2139 -72 c133
-65 229 -193 260 -343 21 -101 21 -142 1 -134 -8 3 -15 0 -15 -6 0 -6 -3 -8
-7 -5 -3 4 -12 2 -20 -5 -21 -17 -31 1 -36 62 -2 30 -5 -120 -7 -335 -4 -362
-5 -374 -10 -170 l-5 220 -10 -245 -10 -245 -5 240 c-3 132 -6 -140 -6 -605 0
-465 3 -786 6 -715 l6 130 2 -137 c1 -84 6 -138 12 -138 6 0 11 30 12 68 l2
67 6 -70 6 -70 2 62 c2 59 3 61 27 58 17 -1 25 3 26 14 1 9 5 5 9 -9 8 -24 8
-24 9 -2 1 12 6 22 12 22 19 0 5 -89 -26 -171 -24 -62 -41 -86 -102 -146 -78
-79 -104 -92 -73 -40 51 88 51 75 48 1219 l-3 1063 -22 42 c-27 50 -86 100
-133 113 -22 6 -308 10 -745 10 -746 0 -1165 7 -1165 22 0 4 53 9 118 9 132 2
112 15 -28 19 l-85 3 93 7 c50 4 95 10 99 13 3 4 -36 8 -88 8 l-94 2 98 7 c54
4 101 11 104 14 4 3 -36 7 -88 7 l-94 2 88 8 c49 4 91 10 95 13 3 3 -33 7 -79
7 l-84 2 80 8 c118 12 121 16 15 19 l-95 3 110 12 110 12 -105 3 c-104 3 -104
4 -35 9 l70 6 -60 8 c-33 5 -64 10 -70 12 -5 2 400 3 900 2 l910 -2 69 -34z
m193 -1123 c-2 -18 -4 -4 -4 32 0 36 2 50 4 33 2 -18 2 -48 0 -65z m50 0 c-2
-18 -4 -6 -4 27 0 33 2 48 4 33 2 -15 2 -42 0 -60z m20 5 c-2 -16 -4 -3 -4 27
0 30 2 43 4 28 2 -16 2 -40 0 -55z m-120 -425 c-2 -35 -3 -9 -3 57 0 66 1 94
3 63 2 -32 2 -86 0 -120z m30 -230 c-2 -18 -4 -4 -4 32 0 36 2 50 4 33 2 -18
2 -48 0 -65z m20 10 c-2 -18 -4 -6 -4 27 0 33 2 48 4 33 2 -15 2 -42 0 -60z
m50 5 c-2 -16 -4 -3 -4 27 0 30 2 43 4 28 2 -16 2 -40 0 -55z"/>
</g>
</svg>
